<svg width="102" height="41" viewBox="0 0 102 41" fill="none" xmlns="http://www.w3.org/2000/svg">
<path d="M0.31061 3.3706L9.0606 3.38016L9.03658 25.3723L18.4116 25.3826L18.4054 31.0076L0.280443 30.9878L0.31061 3.3706ZM46.0031 31.0377L37.5851 31.0285L37.7624 29.6811C37.8149 29.2644 37.861 28.7957 37.9006 28.275C37.9402 27.7542 37.9734 27.2138 38 26.654C37.6086 27.4218 37.113 28.1113 36.5134 28.7227C35.9268 29.321 35.2752 29.8346 34.5586 30.2635C33.842 30.6924 33.0799 31.0171 32.2724 31.2376C31.4648 31.4711 30.6509 31.5873 29.8306 31.5865C28.815 31.5853 27.8516 31.415 26.9405 31.0755C26.0294 30.749 25.2227 30.2273 24.5204 29.5103C23.831 28.7804 23.2787 27.8488 22.8632 26.7156C22.4609 25.5693 22.2605 24.1889 22.2623 22.5743L22.2761 9.93756L30.7136 9.94678L30.7007 21.8022C30.6998 22.6095 30.7706 23.2867 30.9133 23.8337C31.0689 24.3808 31.2768 24.8237 31.5368 25.1625C31.7969 25.5014 32.0961 25.7491 32.4345 25.9057C32.7728 26.0493 33.1308 26.1213 33.5084 26.1217C33.9511 26.1222 34.394 26.0315 34.8369 25.8497C35.2928 25.6679 35.7032 25.421 36.0681 25.1089C36.4461 24.7968 36.7655 24.4326 37.0264 24.0162C37.3003 23.5868 37.4831 23.1313 37.5747 22.6496L37.5886 9.95429L46.0261 9.96351L46.0031 31.0377ZM68.3112 9.98785L76.9636 9.9973L68.9254 19.9104L77.3312 31.0719L67.5656 31.0613L61.2288 21.1129L60.564 21.7958L60.5538 31.0536L52.1163 31.0444L52.1491 1.04441L60.5866 1.05362L60.5666 19.3739L68.3112 9.98785ZM93.1159 10.0149L101.553 10.0242L101.534 28.1491C101.532 29.6205 101.381 30.942 101.08 32.1135C100.779 33.285 100.361 34.3263 99.8266 35.2371C99.2918 36.161 98.6529 36.9481 97.91 37.5983C97.1801 38.2616 96.3722 38.8011 95.4864 39.2168C94.6005 39.6455 93.6561 39.957 92.6533 40.1512C91.6505 40.3584 90.6217 40.4615 89.567 40.4603C88.1478 40.4588 86.7221 40.3856 85.2899 40.2408C83.8578 40.096 82.5495 39.8537 81.3649 39.5138L81.9562 34.5926C83.3751 34.9327 84.5598 35.1488 85.5102 35.241C86.4737 35.3332 87.1833 35.3796 87.639 35.3801C88.9411 35.3815 89.9764 35.1938 90.7451 34.8171C91.5267 34.4403 92.1198 33.8615 92.5243 33.0807C92.72 32.6903 92.8767 32.3064 92.9943 31.9289C93.1249 31.5514 93.2295 31.1609 93.3081 30.7574C93.3867 30.3538 93.4392 29.9372 93.4657 29.5075C93.4922 29.0648 93.5058 28.5766 93.5064 28.0427C93.2324 28.5372 92.8608 28.973 92.3917 29.3501C91.9225 29.7272 91.4013 30.0456 90.8281 30.3054C90.2549 30.5652 89.6492 30.7599 89.0111 30.8894C88.3859 31.0189 87.7739 31.0833 87.1749 31.0827C86.1333 31.0815 85.1438 30.9242 84.2067 30.6107C83.2695 30.2841 82.4368 29.7819 81.7083 29.1041C80.9929 28.4132 80.421 27.5336 79.9925 26.4655C79.577 25.3973 79.37 24.121 79.3716 22.6367L79.3854 9.99994L86.8854 10.0081L86.8719 22.4105C86.8712 23.0615 86.9617 23.628 87.1435 24.11C87.3383 24.579 87.5852 24.9698 87.8844 25.2827C88.1966 25.5825 88.5479 25.8107 88.9383 25.9674C89.3288 26.1111 89.7258 26.1831 90.1295 26.1836C90.5071 26.184 90.8717 26.1258 91.2234 26.009C91.5882 25.8792 91.9074 25.6972 92.1811 25.4631C92.4548 25.2161 92.6765 24.9168 92.8461 24.5654C93.0158 24.2141 93.1008 23.8105 93.1013 23.3548L93.1159 10.0149Z" fill="white"/>
</svg>
